# xmcd
#
# Track frame offsets: 
#        150
#        12324
#        24154
#        37721
#        47738
#        60866
#        73673
#        84015
#        94134
#        114577
#
# Disc length: 1694 seconds
#
# Revision: 0
# Processed by: cddbd v1.5.2PL0 Copyright (c) Steve Scherf et al.
# Submitted via: ExactAudioCopy v1.0b3
#
DISCID=67069c0a
DTITLE=Various Artist - BLUES and Soul Masters who inspired the Blues B
DTITLE=rothers (No.125)
DYEAR=2015
DGENRE=Blues
TTITLE0=Otis Redding - I Can't Turn You Loose
TTITLE1=Sam and Dave - Soul Man
TTITLE2=The Coasters - Riot in Cell Block Number Nine
TTITLE3=Buddy Guy and Junior Wells - Messin' wth the Kid
TTITLE4=King Curtis - Peter Gunn
TTITLE5=Ray Charles - Let the Good Times Roll
TTITLE6=Aretha Franklin - Think
TTITLE7=Wilson Pickett - Everbody Needs Somebody to Love
TTITLE8=Cab Calloway - Minnie the Moocher
TTITLE9=Big Joe Turner - Flip, Flop and Fly
EXTD=
EXTT0=
EXTT1=
EXTT2=
EXTT3=
EXTT4=
EXTT5=
EXTT6=
EXTT7=
EXTT8=
EXTT9=
PLAYORDER=
